<?xml version="1.0" encoding="UTF-8" standalone="no"?>
<!-- Created with Inkscape (http://www.inkscape.org/) -->

<svg
   xmlns:dc="http://purl.org/dc/elements/1.1/"
   xmlns:cc="http://creativecommons.org/ns#"
   xmlns:rdf="http://www.w3.org/1999/02/22-rdf-syntax-ns#"
   xmlns:svg="http://www.w3.org/2000/svg"
   xmlns="http://www.w3.org/2000/svg"
   xmlns:sodipodi="http://sodipodi.sourceforge.net/DTD/sodipodi-0.dtd"
   xmlns:inkscape="http://www.inkscape.org/namespaces/inkscape"
   width="100pt"
   height="22.5pt"
   viewBox="0 0 35.277779 7.9375002"
   version="1.1"
   id="svg8"
   inkscape:version="0.92.3 (2405546, 2018-03-11)"
   sodipodi:docname="email.svg">
  <defs
     id="defs2" />
  <sodipodi:namedview
     id="base"
     pagecolor="#ffffff"
     bordercolor="#666666"
     borderopacity="1.0"
     inkscape:pageopacity="0.0"
     inkscape:pageshadow="2"
     inkscape:zoom="1.979899"
     inkscape:cx="31.968048"
     inkscape:cy="-17.430014"
     inkscape:document-units="mm"
     inkscape:current-layer="layer1"
     showgrid="false"
     units="pt"
     inkscape:window-width="1320"
     inkscape:window-height="710"
     inkscape:window-x="46"
     inkscape:window-y="0"
     inkscape:window-maximized="1" />
  <metadata
     id="metadata5">
    <rdf:RDF>
      <cc:Work
         rdf:about="">
        <dc:format>image/svg+xml</dc:format>
        <dc:type
           rdf:resource="http://purl.org/dc/dcmitype/StillImage" />
        <dc:title></dc:title>
      </cc:Work>
    </rdf:RDF>
  </metadata>
  <g
     inkscape:label="Layer 1"
     inkscape:groupmode="layer"
     id="layer1"
     transform="translate(0,-289.06248)">
    <g
       transform="matrix(0.26458333,0,0,0.26458333,-0.52916667,289.06248)"
       style="font-style:normal;font-variant:normal;font-weight:normal;font-stretch:normal;font-size:8px;line-height:100%;font-family:'Noto Sans CJK SC';-inkscape-font-specification:'Noto Sans CJK SC';letter-spacing:0px;word-spacing:0px;fill:#000000;fill-opacity:1;stroke:none;stroke-width:1px;stroke-linecap:butt;stroke-linejoin:miter;stroke-opacity:1"
       id="flowRoot815">
      <path
         d="m 8.7645469,10.350469 q -0.944,0 -1.488,-0.5120003 -0.536,-0.52 -0.536,-1.68 0,-0.824 0.264,-1.32 0.272,-0.496 0.744,-0.712 0.472,-0.224 1.088,-0.224 0.376,0 0.68,0.08 0.304,0.072 0.5840001,0.216 l -0.2160001,0.584 q -0.256,-0.128 -0.496,-0.192 -0.24,-0.064 -0.52,-0.064 -0.736,0 -1.064,0.408 -0.328,0.4 -0.328,1.208 0,0.856 0.344,1.224 0.344,0.3680001 1.024,0.3680001 0.352,0 0.664,-0.072 0.312,-0.08 0.5440001,-0.184 v 0.6320003 q -0.2400001,0.112 -0.5920001,0.176 -0.352,0.064 -0.696,0.064 z"
         style="font-style:normal;font-variant:normal;font-weight:normal;font-stretch:normal;font-family:'Noto Sans Mono';-inkscape-font-specification:'Noto Sans Mono'"
         id="path827" />
      <path
         d="m 13.265422,10.350469 q -0.56,0 -1.008,-0.24 -0.44,-0.2480002 -0.704,-0.7440003 -0.256,-0.5039999 -0.256,-1.256 0,-0.744 0.248,-1.232 0.256,-0.488 0.696,-0.728 0.44,-0.248 1,-0.248 0.56,0 1.008,0.248 0.448,0.24 0.704,0.736 0.264,0.488 0.264,1.2480001 0,0.744 -0.256,1.2399999 -0.256,0.4880001 -0.696,0.7360003 -0.44,0.24 -1,0.24 z m -0.008,-0.5840002 q 0.624,0 0.928,-0.4400001 0.304,-0.4479999 0.304,-1.208 0,-0.76 -0.312,-1.192 -0.304,-0.44 -0.928,-0.44 -0.624,0 -0.936,0.44 -0.304,0.432 -0.304,1.192 0,0.7600001 0.312,1.208 0.312,0.4400001 0.936,0.4400001 z"
         style="font-style:normal;font-variant:normal;font-weight:normal;font-stretch:normal;font-family:'Noto Sans Mono';-inkscape-font-specification:'Noto Sans Mono'"
         id="path829" />
      <path
         d="M 16.294297,10.270469 V 5.9824687 h 0.576 l 0.104,0.632 h 0.04 q 0.184,-0.368 0.544,-0.536 0.368,-0.176 0.856,-0.176 0.648,0 1.04,0.368 0.4,0.36 0.4,1.136 v 2.8640003 h -0.72 V 7.5344687 q 0,-0.544 -0.224,-0.792 -0.216,-0.256 -0.704,-0.256 -0.656,0 -0.928,0.416 -0.264,0.416 -0.264,1.1680001 v 2.2000002 z"
         style="font-style:normal;font-variant:normal;font-weight:normal;font-stretch:normal;font-family:'Noto Sans Mono';-inkscape-font-specification:'Noto Sans Mono'"
         id="path831" />
      <path
         d="m 23.667172,10.350469 q -0.456,0 -0.824,-0.12 -0.36,-0.12 -0.568,-0.4240003 -0.208,-0.304 -0.208,-0.84 v -2.384 h -1.168 v -0.496 l 1.168,-0.128 0.144,-1.12 h 0.576 v 1.144 h 1.672 v 0.6 h -1.672 v 2.2480001 q 0,0.4879999 0.216,0.7119999 0.216,0.2240001 0.712,0.2240001 0.208,0 0.448,-0.04 0.24,-0.04 0.416,-0.08 v 0.5760003 q -0.192,0.048 -0.424,0.088 -0.232,0.04 -0.488,0.04 z"
         style="font-style:normal;font-variant:normal;font-weight:normal;font-stretch:normal;font-family:'Noto Sans Mono';-inkscape-font-specification:'Noto Sans Mono'"
         id="path833" />
      <path
         d="m 27.216047,10.350469 q -0.632,0 -1.024,-0.312 -0.384,-0.3120003 -0.384,-0.9440003 0,-0.696 0.496,-1.04 0.504,-0.344 1.448,-0.368 l 0.92,-0.024 v -0.176 q 0,-0.576 -0.288,-0.784 -0.288,-0.216 -0.776,-0.216 -0.344,0 -0.656,0.088 -0.312,0.088 -0.592,0.248 l -0.248,-0.544 q 0.304,-0.152 0.672,-0.264 0.376,-0.112 0.864,-0.112 0.8,0 1.24,0.368 0.44,0.36 0.44,1.128 v 2.8720003 h -0.576 l -0.08,-0.5920003 h -0.032 q -0.264,0.3360003 -0.616,0.5040003 -0.344,0.168 -0.808,0.168 z m 0.12,-0.5840002 q 0.36,0 0.664,-0.128 0.304,-0.1360001 0.488,-0.4000001 0.184,-0.2639999 0.184,-0.68 v -0.384 l -0.768,0.024 q -0.768,0.024 -1.096,0.2479999 -0.32,0.2240001 -0.32,0.6240001 0,0.3679999 0.232,0.536 0.232,0.16 0.616,0.16 z"
         style="font-style:normal;font-variant:normal;font-weight:normal;font-stretch:normal;font-family:'Noto Sans Mono';-inkscape-font-specification:'Noto Sans Mono'"
         id="path835" />
      <path
         d="m 32.748922,10.350469 q -0.944,0 -1.488,-0.5120003 -0.536,-0.52 -0.536,-1.68 0,-0.824 0.264,-1.32 0.272,-0.496 0.744,-0.712 0.472,-0.224 1.088,-0.224 0.376,0 0.68,0.08 0.304,0.072 0.584,0.216 l -0.216,0.584 q -0.256,-0.128 -0.496,-0.192 -0.24,-0.064 -0.52,-0.064 -0.736,0 -1.064,0.408 -0.328,0.4 -0.328,1.208 0,0.856 0.344,1.224 0.344,0.3680001 1.024,0.3680001 0.352,0 0.664,-0.072 0.312,-0.08 0.544,-0.184 v 0.6320003 q -0.24,0.112 -0.592,0.176 -0.352,0.064 -0.696,0.064 z"
         style="font-style:normal;font-variant:normal;font-weight:normal;font-stretch:normal;font-family:'Noto Sans Mono';-inkscape-font-specification:'Noto Sans Mono'"
         id="path837" />
      <path
         d="m 38.057797,10.350469 q -0.456,0 -0.824,-0.12 -0.36,-0.12 -0.568,-0.4240003 -0.208,-0.304 -0.208,-0.84 v -2.384 h -1.168 v -0.496 l 1.168,-0.128 0.144,-1.12 h 0.576 v 1.144 h 1.672 v 0.6 h -1.672 v 2.2480001 q 0,0.4879999 0.216,0.7119999 0.216,0.2240001 0.712,0.2240001 0.208,0 0.448,-0.04 0.24,-0.04 0.416,-0.08 v 0.5760003 q -0.192,0.048 -0.424,0.088 -0.232,0.04 -0.488,0.04 z"
         style="font-style:normal;font-variant:normal;font-weight:normal;font-stretch:normal;font-family:'Noto Sans Mono';-inkscape-font-specification:'Noto Sans Mono'"
         id="path839" />
      <path
         d="m 42.230672,10.982469 q -0.8,0 -1.352,-0.376 -0.552,-0.376 -0.84,-1.0640003 -0.28,-0.6959999 -0.28,-1.624 0,-0.976 0.272,-1.736 0.28,-0.76 0.824,-1.192 0.544,-0.432 1.336,-0.432 0.648,0 1.12,0.344 0.48,0.344 0.744,0.984 0.264,0.64 0.264,1.528 0,0.368 -0.056,0.7200001 -0.048,0.3519999 -0.16,0.6399999 -0.104,0.288 -0.288,0.464 -0.176,0.168 -0.44,0.168 -0.272,0 -0.432,-0.216 -0.152,-0.2159999 -0.184,-0.4879999 h -0.016 q -0.112,0.2959999 -0.336,0.5039999 -0.224,0.2 -0.56,0.2 -0.488,0 -0.752,-0.4159999 -0.264,-0.416 -0.264,-1.0880001 0,-0.528 0.168,-0.928 0.168,-0.408 0.472,-0.632 0.312,-0.232 0.736,-0.232 0.288,0 0.568,0.064 0.28,0.056 0.432,0.12 l -0.088,1.624 q -0.008,0.064 -0.008,0.1520001 0,0.088 0,0.1439999 0,0.416 0.088,0.5520001 0.088,0.1359999 0.192,0.1359999 0.144,0 0.224,-0.1999999 0.088,-0.2080001 0.128,-0.5440001 0.04,-0.344 0.04,-0.752 0,-1.112 -0.448,-1.712 -0.44,-0.608 -1.152,-0.608 -0.608,0 -1.032,0.352 -0.416,0.352 -0.632,0.984 -0.208,0.632 -0.208,1.472 0,1.184 0.488,1.8720001 0.488,0.6800002 1.456,0.6800002 0.4,0 0.736,-0.088 0.336,-0.088 0.616,-0.216 v 0.52 q -0.288,0.144 -0.616,0.232 -0.328,0.088 -0.76,0.088 z m -0.28,-2.0800003 q 0.296,0 0.416,-0.336 0.12,-0.344 0.152,-0.88 l 0.056,-0.992 q -0.08,-0.032 -0.184,-0.056 -0.104,-0.024 -0.216,-0.024 -0.264,0 -0.424,0.192 -0.16,0.192 -0.232,0.496 -0.064,0.296 -0.064,0.616 0,0.52 0.136,0.7520001 0.136,0.2319999 0.36,0.2319999 z"
         style="font-style:normal;font-variant:normal;font-weight:normal;font-stretch:normal;font-family:'Noto Sans Mono';-inkscape-font-specification:'Noto Sans Mono'"
         id="path841" />
      <path
         d="m 47.139547,10.350469 q -0.944,0 -1.488,-0.5120003 -0.536,-0.52 -0.536,-1.68 0,-0.824 0.264,-1.32 0.272,-0.496 0.744,-0.712 0.472,-0.224 1.088,-0.224 0.376,0 0.68,0.08 0.304,0.072 0.584,0.216 l -0.216,0.584 q -0.256,-0.128 -0.496,-0.192 -0.24,-0.064 -0.52,-0.064 -0.736,0 -1.064,0.408 -0.328,0.4 -0.328,1.208 0,0.856 0.344,1.224 0.344,0.3680001 1.024,0.3680001 0.352,0 0.664,-0.072 0.312,-0.08 0.544,-0.184 v 0.6320003 q -0.24,0.112 -0.592,0.176 -0.352,0.064 -0.696,0.064 z"
         style="font-style:normal;font-variant:normal;font-weight:normal;font-stretch:normal;font-family:'Noto Sans Mono';-inkscape-font-specification:'Noto Sans Mono'"
         id="path843" />
      <path
         d="M 49.872422,10.270469 V 4.1904687 h 0.72 v 1.728 q 0,0.152 -0.016,0.384 -0.008,0.232 -0.016,0.368 h 0.04 q 0.2,-0.4 0.552,-0.584 0.352,-0.184 0.792,-0.184 0.664,0 1.072,0.376 0.416,0.368 0.416,1.192 v 2.8000003 h -0.72 V 7.6144687 q 0,-0.584 -0.248,-0.856 -0.248,-0.272 -0.704,-0.272 -0.536,0 -0.856,0.416 -0.312,0.408 -0.312,1.144 v 2.2240003 z"
         style="font-style:normal;font-variant:normal;font-weight:normal;font-stretch:normal;font-family:'Noto Sans Mono';-inkscape-font-specification:'Noto Sans Mono'"
         id="path845" />
      <path
         d="m 55.997297,10.350469 q -0.632,0 -1.024,-0.312 -0.384,-0.3120003 -0.384,-0.9440003 0,-0.696 0.496,-1.04 0.504,-0.344 1.448,-0.368 l 0.92,-0.024 v -0.176 q 0,-0.576 -0.288,-0.784 -0.288,-0.216 -0.776,-0.216 -0.344,0 -0.656,0.088 -0.312,0.088 -0.592,0.248 l -0.248,-0.544 q 0.304,-0.152 0.672,-0.264 0.376,-0.112 0.864,-0.112 0.8,0 1.24,0.368 0.44,0.36 0.44,1.128 v 2.8720003 h -0.576 l -0.08,-0.5920003 h -0.032 q -0.264,0.3360003 -0.616,0.5040003 -0.344,0.168 -0.808,0.168 z m 0.12,-0.5840002 q 0.36,0 0.664,-0.128 0.304,-0.1360001 0.488,-0.4000001 0.184,-0.2639999 0.184,-0.68 v -0.384 l -0.768,0.024 q -0.768,0.024 -1.096,0.2479999 -0.32,0.2240001 -0.32,0.6240001 0,0.3679999 0.232,0.536 0.232,0.16 0.616,0.16 z"
         style="font-style:normal;font-variant:normal;font-weight:normal;font-stretch:normal;font-family:'Noto Sans Mono';-inkscape-font-specification:'Noto Sans Mono'"
         id="path847" />
      <path
         d="m 61.234172,10.350469 q -0.56,0 -1.008,-0.24 -0.44,-0.2480002 -0.704,-0.7440003 -0.256,-0.5039999 -0.256,-1.256 0,-0.744 0.248,-1.232 0.256,-0.488 0.696,-0.728 0.44,-0.248 1,-0.248 0.56,0 1.008,0.248 0.448,0.24 0.704,0.736 0.264,0.488 0.264,1.2480001 0,0.744 -0.256,1.2399999 -0.256,0.4880001 -0.696,0.7360003 -0.44,0.24 -1,0.24 z m -0.008,-0.5840002 q 0.624,0 0.928,-0.4400001 0.304,-0.4479999 0.304,-1.208 0,-0.76 -0.312,-1.192 -0.304,-0.44 -0.928,-0.44 -0.624,0 -0.936,0.44 -0.304,0.432 -0.304,1.192 0,0.7600001 0.312,1.208 0.312,0.4400001 0.936,0.4400001 z"
         style="font-style:normal;font-variant:normal;font-weight:normal;font-stretch:normal;font-family:'Noto Sans Mono';-inkscape-font-specification:'Noto Sans Mono'"
         id="path849" />
      <path
         d="m 66.255047,10.350469 q -0.472,0 -0.8,-0.184 -0.328,-0.1840003 -0.504,-0.4400003 h -0.048 l -0.064,0.5440003 h -0.576 V 4.1904687 h 0.696 v 1.472 q 0,0.224 -0.008,0.44 0,0.216 -0.024,0.44 h 0.032 q 0.168,-0.256 0.488,-0.448 0.32,-0.192 0.808,-0.192 0.776,0 1.248,0.56 0.48,0.56 0.48,1.656 0,1.104 -0.48,1.672 -0.48,0.5600003 -1.248,0.5600003 z m -0.136,-0.5840002 q 0.584,0 0.856,-0.4240001 0.272,-0.424 0.272,-1.224 0,-0.784 -0.272,-1.208 -0.272,-0.424 -0.864,-0.424 -0.552,0 -0.856,0.424 -0.296,0.416 -0.296,1.1920001 0,0.808 0.28,1.2399999 0.288,0.4240001 0.88,0.4240001 z"
         style="font-style:normal;font-variant:normal;font-weight:normal;font-stretch:normal;font-family:'Noto Sans Mono';-inkscape-font-specification:'Noto Sans Mono'"
         id="path851" />
      <path
         d="m 70.387922,10.350469 q -0.632,0 -1.024,-0.312 -0.384,-0.3120003 -0.384,-0.9440003 0,-0.696 0.496,-1.04 0.504,-0.344 1.448,-0.368 l 0.92,-0.024 v -0.176 q 0,-0.576 -0.288,-0.784 -0.288,-0.216 -0.776,-0.216 -0.344,0 -0.656,0.088 -0.312,0.088 -0.592,0.248 l -0.248,-0.544 q 0.304,-0.152 0.672,-0.264 0.376,-0.112 0.864,-0.112 0.8,0 1.24,0.368 0.44,0.36 0.44,1.128 v 2.8720003 h -0.576 l -0.08,-0.5920003 h -0.032 q -0.264,0.3360003 -0.616,0.5040003 -0.344,0.168 -0.808,0.168 z m 0.12,-0.5840002 q 0.36,0 0.664,-0.128 0.304,-0.1360001 0.488,-0.4000001 0.184,-0.2639999 0.184,-0.68 v -0.384 l -0.768,0.024 q -0.768,0.024 -1.096,0.2479999 -0.32,0.2240001 -0.32,0.6240001 0,0.3679999 0.232,0.536 0.232,0.16 0.616,0.16 z"
         style="font-style:normal;font-variant:normal;font-weight:normal;font-stretch:normal;font-family:'Noto Sans Mono';-inkscape-font-specification:'Noto Sans Mono'"
         id="path853" />
      <path
         d="m 75.672797,5.2064687 q -0.208,0 -0.36,-0.12 -0.144,-0.128 -0.144,-0.384 0,-0.264 0.144,-0.384 0.152,-0.128 0.36,-0.128 0.2,0 0.352,0.128 0.152,0.12 0.152,0.384 0,0.256 -0.152,0.384 -0.152,0.12 -0.352,0.12 z m -1.816,5.0640003 V 9.7904687 l 1.528,-0.1199999 V 6.5824687 l -1.4,-0.104 v -0.496 h 2.12 v 3.6880001 l 1.432,0.1199999 v 0.4800003 z"
         style="font-style:normal;font-variant:normal;font-weight:normal;font-stretch:normal;font-family:'Noto Sans Mono';-inkscape-font-specification:'Noto Sans Mono'"
         id="path855" />
      <path
         d="m 80.413672,10.350469 q -0.208,0 -0.352,-0.128 -0.144,-0.128 -0.144,-0.4160003 0,-0.304 0.144,-0.424 0.144,-0.1199999 0.352,-0.1199999 0.208,0 0.352,0.1199999 0.144,0.12 0.144,0.424 0,0.2880003 -0.144,0.4160003 -0.144,0.128 -0.352,0.128 z"
         style="font-style:normal;font-variant:normal;font-weight:normal;font-stretch:normal;font-family:'Noto Sans Mono';-inkscape-font-specification:'Noto Sans Mono'"
         id="path857" />
      <path
         d="M 83.450547,10.270469 V 9.7904687 l 1.568,-0.1199999 V 4.7904687 l -1.52,-0.104 v -0.496 h 2.24 v 5.4800001 l 1.392,0.1199999 v 0.4800003 z"
         style="font-style:normal;font-variant:normal;font-weight:normal;font-stretch:normal;font-family:'Noto Sans Mono';-inkscape-font-specification:'Noto Sans Mono'"
         id="path859" />
      <path
         d="m 90.063422,5.2064687 q -0.208,0 -0.36,-0.12 -0.144,-0.128 -0.144,-0.384 0,-0.264 0.144,-0.384 0.152,-0.128 0.36,-0.128 0.2,0 0.352,0.128 0.152,0.12 0.152,0.384 0,0.256 -0.152,0.384 -0.152,0.12 -0.352,0.12 z m -1.816,5.0640003 V 9.7904687 l 1.528,-0.1199999 V 6.5824687 l -1.4,-0.104 v -0.496 h 2.12 v 3.6880001 l 1.432,0.1199999 v 0.4800003 z"
         style="font-style:normal;font-variant:normal;font-weight:normal;font-stretch:normal;font-family:'Noto Sans Mono';-inkscape-font-specification:'Noto Sans Mono'"
         id="path861" />
      <path
         d="m 6.7005469,27.031467 v -0.48 l 1.568,-0.12 v -4.88 l -1.52,-0.104 v -0.496 h 2.24 v 5.48 l 1.3920001,0.12 v 0.48 z"
         style="font-style:normal;font-variant:normal;font-weight:normal;font-stretch:normal;font-family:'Noto Sans Mono';-inkscape-font-specification:'Noto Sans Mono'"
         id="path863" />
      <path
         d="m 13.313422,21.967467 q -0.208,0 -0.36,-0.12 -0.144,-0.128 -0.144,-0.384 0,-0.264 0.144,-0.384 0.152,-0.128 0.36,-0.128 0.2,0 0.352,0.128 0.152,0.12 0.152,0.384 0,0.256 -0.152,0.384 -0.152,0.12 -0.352,0.12 z m -1.816,5.064 v -0.48 l 1.528,-0.12 v -3.088 l -1.4,-0.104 v -0.496 h 2.12 v 3.688 l 1.432,0.12 v 0.48 z"
         style="font-style:normal;font-variant:normal;font-weight:normal;font-stretch:normal;font-family:'Noto Sans Mono';-inkscape-font-specification:'Noto Sans Mono'"
         id="path865" />
      <path
         d="m 18.246297,27.743467 q -0.8,0 -1.352,-0.376 -0.552,-0.376 -0.84,-1.064 -0.28,-0.696 -0.28,-1.624 0,-0.976 0.272,-1.736 0.28,-0.76 0.824,-1.192 0.544,-0.432 1.336,-0.432 0.648,0 1.12,0.344 0.48,0.344 0.744,0.984 0.264,0.64 0.264,1.528 0,0.368 -0.056,0.72 -0.048,0.352 -0.16,0.64 -0.104,0.288 -0.288,0.464 -0.176,0.168 -0.44,0.168 -0.272,0 -0.432,-0.216 -0.152,-0.216 -0.184,-0.488 h -0.016 q -0.112,0.296 -0.336,0.504 -0.224,0.2 -0.56,0.2 -0.488,0 -0.752,-0.416 -0.264,-0.416 -0.264,-1.088 0,-0.528 0.168,-0.928 0.168,-0.408 0.472,-0.632 0.312,-0.232 0.736,-0.232 0.288,0 0.568,0.064 0.28,0.056 0.432,0.12 l -0.088,1.624 q -0.008,0.064 -0.008,0.152 0,0.088 0,0.144 0,0.416 0.088,0.552 0.088,0.136 0.192,0.136 0.144,0 0.224,-0.2 0.088,-0.208 0.128,-0.544 0.04,-0.344 0.04,-0.752 0,-1.112 -0.448,-1.712 -0.44,-0.608 -1.152,-0.608 -0.608,0 -1.032,0.352 -0.416,0.352 -0.632,0.984 -0.208,0.632 -0.208,1.472 0,1.184 0.488,1.872 0.488,0.68 1.456,0.68 0.4,0 0.736,-0.088 0.336,-0.088 0.616,-0.216 v 0.52 q -0.288,0.144 -0.616,0.232 -0.328,0.088 -0.76,0.088 z m -0.28,-2.08 q 0.296,0 0.416,-0.336 0.12,-0.344 0.152,-0.88 l 0.056,-0.992 q -0.08,-0.032 -0.184,-0.056 -0.104,-0.024 -0.216,-0.024 -0.264,0 -0.424,0.192 -0.16,0.192 -0.232,0.496 -0.064,0.296 -0.064,0.616 0,0.52 0.136,0.752 0.136,0.232 0.36,0.232 z"
         style="font-style:normal;font-variant:normal;font-weight:normal;font-stretch:normal;font-family:'Noto Sans Mono';-inkscape-font-specification:'Noto Sans Mono'"
         id="path867" />
      <path
         d="m 23.155172,27.111467 q -0.944,0 -1.488,-0.512 -0.536,-0.52 -0.536,-1.68 0,-0.824 0.264,-1.32 0.272,-0.496 0.744,-0.712 0.472,-0.224 1.088,-0.224 0.376,0 0.68,0.08 0.304,0.072 0.584,0.216 l -0.216,0.584 q -0.256,-0.128 -0.496,-0.192 -0.24,-0.064 -0.52,-0.064 -0.736,0 -1.064,0.408 -0.328,0.4 -0.328,1.208 0,0.856 0.344,1.224 0.344,0.368 1.024,0.368 0.352,0 0.664,-0.072 0.312,-0.08 0.544,-0.184 v 0.632 q -0.24,0.112 -0.592,0.176 -0.352,0.064 -0.696,0.064 z"
         style="font-style:normal;font-variant:normal;font-weight:normal;font-stretch:normal;font-family:'Noto Sans Mono';-inkscape-font-specification:'Noto Sans Mono'"
         id="path869" />
      <path
         d="m 25.888047,27.031467 v -6.08 h 0.72 v 1.728 q 0,0.152 -0.016,0.384 -0.008,0.232 -0.016,0.368 h 0.04 q 0.2,-0.4 0.552,-0.584 0.352,-0.184 0.792,-0.184 0.664,0 1.072,0.376 0.416,0.368 0.416,1.192 v 2.8 h -0.72 v -2.656 q 0,-0.584 -0.248,-0.856 -0.248,-0.272 -0.704,-0.272 -0.536,0 -0.856,0.416 -0.312,0.408 -0.312,1.144 v 2.224 z"
         style="font-style:normal;font-variant:normal;font-weight:normal;font-stretch:normal;font-family:'Noto Sans Mono';-inkscape-font-specification:'Noto Sans Mono'"
         id="path871" />
      <path
         d="m 32.012922,27.111467 q -0.632,0 -1.024,-0.312 -0.384,-0.312 -0.384,-0.944 0,-0.696 0.496,-1.04 0.504,-0.344 1.448,-0.368 l 0.92,-0.024 v -0.176 q 0,-0.576 -0.288,-0.784 -0.288,-0.216 -0.776,-0.216 -0.344,0 -0.656,0.088 -0.312,0.088 -0.592,0.248 l -0.248,-0.544 q 0.304,-0.152 0.672,-0.264 0.376,-0.112 0.864,-0.112 0.8,0 1.24,0.368 0.44,0.36 0.44,1.128 v 2.872 h -0.576 l -0.08,-0.592 h -0.032 q -0.264,0.336 -0.616,0.504 -0.344,0.168 -0.808,0.168 z m 0.12,-0.584 q 0.36,0 0.664,-0.128 0.304,-0.136 0.488,-0.4 0.184,-0.264 0.184,-0.68 v -0.384 l -0.768,0.024 q -0.768,0.024 -1.096,0.248 -0.32,0.224 -0.32,0.624 0,0.368 0.232,0.536 0.232,0.16 0.616,0.16 z"
         style="font-style:normal;font-variant:normal;font-weight:normal;font-stretch:normal;font-family:'Noto Sans Mono';-inkscape-font-specification:'Noto Sans Mono'"
         id="path873" />
      <path
         d="m 37.249797,27.111467 q -0.56,0 -1.008,-0.24 -0.44,-0.248 -0.704,-0.744 -0.256,-0.504 -0.256,-1.256 0,-0.744 0.248,-1.232 0.256,-0.488 0.696,-0.728 0.44,-0.248 1,-0.248 0.56,0 1.008,0.248 0.448,0.24 0.704,0.736 0.264,0.488 0.264,1.248 0,0.744 -0.256,1.24 -0.256,0.488 -0.696,0.736 -0.44,0.24 -1,0.24 z m -0.008,-0.584 q 0.624,0 0.928,-0.44 0.304,-0.448 0.304,-1.208 0,-0.76 -0.312,-1.192 -0.304,-0.44 -0.928,-0.44 -0.624,0 -0.936,0.44 -0.304,0.432 -0.304,1.192 0,0.76 0.312,1.208 0.312,0.44 0.936,0.44 z"
         style="font-style:normal;font-variant:normal;font-weight:normal;font-stretch:normal;font-family:'Noto Sans Mono';-inkscape-font-specification:'Noto Sans Mono'"
         id="path875" />
      <path
         d="m 42.270672,27.111467 q -0.472,0 -0.8,-0.184 -0.328,-0.184 -0.504,-0.44 h -0.048 l -0.064,0.544 h -0.576 v -6.08 h 0.696 v 1.472 q 0,0.224 -0.008,0.44 0,0.216 -0.024,0.44 h 0.032 q 0.168,-0.256 0.488,-0.448 0.32,-0.192 0.808,-0.192 0.776,0 1.248,0.56 0.48,0.56 0.48,1.656 0,1.104 -0.48,1.672 -0.48,0.56 -1.248,0.56 z m -0.136,-0.584 q 0.584,0 0.856,-0.424 0.272,-0.424 0.272,-1.224 0,-0.784 -0.272,-1.208 -0.272,-0.424 -0.864,-0.424 -0.552,0 -0.856,0.424 -0.296,0.416 -0.296,1.192 0,0.808 0.28,1.24 0.288,0.424 0.88,0.424 z"
         style="font-style:normal;font-variant:normal;font-weight:normal;font-stretch:normal;font-family:'Noto Sans Mono';-inkscape-font-specification:'Noto Sans Mono'"
         id="path877" />
      <path
         d="m 46.403547,27.111467 q -0.632,0 -1.024,-0.312 -0.384,-0.312 -0.384,-0.944 0,-0.696 0.496,-1.04 0.504,-0.344 1.448,-0.368 l 0.92,-0.024 v -0.176 q 0,-0.576 -0.288,-0.784 -0.288,-0.216 -0.776,-0.216 -0.344,0 -0.656,0.088 -0.312,0.088 -0.592,0.248 l -0.248,-0.544 q 0.304,-0.152 0.672,-0.264 0.376,-0.112 0.864,-0.112 0.8,0 1.24,0.368 0.44,0.36 0.44,1.128 v 2.872 h -0.576 l -0.08,-0.592 h -0.032 q -0.264,0.336 -0.616,0.504 -0.344,0.168 -0.808,0.168 z m 0.12,-0.584 q 0.36,0 0.664,-0.128 0.304,-0.136 0.488,-0.4 0.184,-0.264 0.184,-0.68 v -0.384 l -0.768,0.024 q -0.768,0.024 -1.096,0.248 -0.32,0.224 -0.32,0.624 0,0.368 0.232,0.536 0.232,0.16 0.616,0.16 z"
         style="font-style:normal;font-variant:normal;font-weight:normal;font-stretch:normal;font-family:'Noto Sans Mono';-inkscape-font-specification:'Noto Sans Mono'"
         id="path879" />
      <path
         d="m 51.688422,21.967467 q -0.208,0 -0.36,-0.12 -0.144,-0.128 -0.144,-0.384 0,-0.264 0.144,-0.384 0.152,-0.128 0.36,-0.128 0.2,0 0.352,0.128 0.152,0.12 0.152,0.384 0,0.256 -0.152,0.384 -0.152,0.12 -0.352,0.12 z m -1.816,5.064 v -0.48 l 1.528,-0.12 v -3.088 l -1.4,-0.104 v -0.496 h 2.12 v 3.688 l 1.432,0.12 v 0.48 z"
         style="font-style:normal;font-variant:normal;font-weight:normal;font-stretch:normal;font-family:'Noto Sans Mono';-inkscape-font-specification:'Noto Sans Mono'"
         id="path881" />
      <path
         d="m 56.429297,27.111467 q -0.208,0 -0.352,-0.128 -0.144,-0.128 -0.144,-0.416 0,-0.304 0.144,-0.424 0.144,-0.12 0.352,-0.12 0.208,0 0.352,0.12 0.144,0.12 0.144,0.424 0,0.288 -0.144,0.416 -0.144,0.128 -0.352,0.128 z"
         style="font-style:normal;font-variant:normal;font-weight:normal;font-stretch:normal;font-family:'Noto Sans Mono';-inkscape-font-specification:'Noto Sans Mono'"
         id="path883" />
      <path
         d="m 61.522172,27.111467 q -1.032,0 -1.624,-0.568 -0.592,-0.568 -0.592,-1.64 0,-0.704 0.256,-1.2 0.256,-0.504 0.712,-0.768 0.456,-0.272 1.064,-0.272 0.84,0 1.32,0.544 0.488,0.544 0.488,1.488 v 0.328 h -3.112 q 0.016,0.56 0.208,0.888 0.2,0.328 0.536,0.472 0.344,0.136 0.792,0.136 0.344,0 0.688,-0.096 0.344,-0.096 0.696,-0.256 v 0.64 q -0.368,0.16 -0.736,0.232 -0.368,0.072 -0.696,0.072 z m -1.472,-2.664 h 2.376 q -0.024,-0.56 -0.304,-0.88 -0.272,-0.32 -0.784,-0.32 -0.544,0 -0.872,0.328 -0.328,0.32 -0.416,0.872 z"
         style="font-style:normal;font-variant:normal;font-weight:normal;font-stretch:normal;font-family:'Noto Sans Mono';-inkscape-font-specification:'Noto Sans Mono'"
         id="path885" />
      <path
         d="m 64.023047,27.031467 v -4.288 h 0.496 l 0.104,0.472 h 0.04 q 0.16,-0.32 0.352,-0.432 0.192,-0.12 0.44,-0.12 0.328,0 0.504,0.16 0.184,0.152 0.28,0.456 h 0.024 q 0.136,-0.296 0.336,-0.456 0.208,-0.16 0.544,-0.16 0.496,0 0.688,0.384 0.2,0.376 0.2,1.184 v 2.8 h -0.64 v -2.68 q 0,-0.504 -0.072,-0.784 -0.064,-0.28 -0.36,-0.28 -0.608,0 -0.608,1.6 v 2.144 h -0.64 v -2.68 q 0,-0.512 -0.096,-0.784 -0.088,-0.28 -0.384,-0.28 -0.32,0 -0.448,0.432 -0.12,0.432 -0.12,1.168 v 2.144 z"
         style="font-style:normal;font-variant:normal;font-weight:normal;font-stretch:normal;font-family:'Noto Sans Mono';-inkscape-font-specification:'Noto Sans Mono'"
         id="path887" />
      <path
         d="m 70.387922,27.111467 q -0.632,0 -1.024,-0.312 -0.384,-0.312 -0.384,-0.944 0,-0.696 0.496,-1.04 0.504,-0.344 1.448,-0.368 l 0.92,-0.024 v -0.176 q 0,-0.576 -0.288,-0.784 -0.288,-0.216 -0.776,-0.216 -0.344,0 -0.656,0.088 -0.312,0.088 -0.592,0.248 l -0.248,-0.544 q 0.304,-0.152 0.672,-0.264 0.376,-0.112 0.864,-0.112 0.8,0 1.24,0.368 0.44,0.36 0.44,1.128 v 2.872 h -0.576 l -0.08,-0.592 h -0.032 q -0.264,0.336 -0.616,0.504 -0.344,0.168 -0.808,0.168 z m 0.12,-0.584 q 0.36,0 0.664,-0.128 0.304,-0.136 0.488,-0.4 0.184,-0.264 0.184,-0.68 v -0.384 l -0.768,0.024 q -0.768,0.024 -1.096,0.248 -0.32,0.224 -0.32,0.624 0,0.368 0.232,0.536 0.232,0.16 0.616,0.16 z"
         style="font-style:normal;font-variant:normal;font-weight:normal;font-stretch:normal;font-family:'Noto Sans Mono';-inkscape-font-specification:'Noto Sans Mono'"
         id="path889" />
      <path
         d="m 75.672797,21.967467 q -0.208,0 -0.36,-0.12 -0.144,-0.128 -0.144,-0.384 0,-0.264 0.144,-0.384 0.152,-0.128 0.36,-0.128 0.2,0 0.352,0.128 0.152,0.12 0.152,0.384 0,0.256 -0.152,0.384 -0.152,0.12 -0.352,0.12 z m -1.816,5.064 v -0.48 l 1.528,-0.12 v -3.088 l -1.4,-0.104 v -0.496 h 2.12 v 3.688 l 1.432,0.12 v 0.48 z"
         style="font-style:normal;font-variant:normal;font-weight:normal;font-stretch:normal;font-family:'Noto Sans Mono';-inkscape-font-specification:'Noto Sans Mono'"
         id="path891" />
      <path
         d="m 78.653672,27.031467 v -0.48 l 1.568,-0.12 v -4.88 l -1.52,-0.104 v -0.496 h 2.24 v 5.48 l 1.392,0.12 v 0.48 z"
         style="font-style:normal;font-variant:normal;font-weight:normal;font-stretch:normal;font-family:'Noto Sans Mono';-inkscape-font-specification:'Noto Sans Mono'"
         id="path893" />
    </g>
  </g>
</svg>
